<?xml version="1.0" encoding="UTF-8"?>
<svg width="47px" height="46px" viewBox="0 0 47 46" version="1.1" xmlns="http://www.w3.org/2000/svg" xmlns:xlink="http://www.w3.org/1999/xlink">
    <!-- Generator: sketchtool 57.1 (101010) - https://sketch.com -->
    <title>AD05A884-00BC-4A23-8121-8D27B6294496</title>
    <desc>Created with sketchtool.</desc>
    <g id="Web" stroke="none" stroke-width="1" fill="none" fill-rule="evenodd">
        <g id="Home-Page-2" transform="translate(-311.000000, -974.000000)" fill="#F83842">
            <g id="Best-Deals" transform="translate(0.000000, 747.000000)">
                <g id="Product-list" transform="translate(160.000000, 211.000000)">
                    <g id="Group-18">
                        <g id="discount-copy-discount" transform="translate(145.722222, 10.750000)">
                            <path d="M27.5405303,48.6950266 L25.6678725,49.9709461 C24.7550445,50.5928937 23.510863,50.3570885 22.8889154,49.4442605 C22.8820401,49.4341697 22.8752574,49.4240161 22.8685681,49.4138011 L21.6566519,47.5631267 C21.2039833,46.8718724 20.372825,46.5301522 19.5648474,46.7031078 L17.3476635,47.1777178 C16.2675629,47.408924 15.2045386,46.720759 14.9733324,45.6406583 C14.9691862,45.6212889 14.965328,45.601859 14.961759,45.582375 L14.5766912,43.4801776 C14.4259847,42.6574273 13.7792015,42.0153595 12.9553704,41.8706773 L10.7736287,41.4875171 C9.68570903,41.2964553 8.95866208,40.259636 9.14972388,39.1717163 C9.15500728,39.1416323 9.16097916,39.1116732 9.16763482,39.0818627 L9.62185138,37.0474409 C9.80635341,36.2210621 9.45047766,35.3680477 8.73337642,34.9178158 L6.92138737,33.7801587 C5.98591446,33.1928221 5.70369416,31.9583412 6.2910307,31.0228683 C6.31130436,30.9905776 6.33249725,30.9588734 6.35458338,30.9277943 L7.56254088,29.2279855 C8.05551306,28.5342869 8.05551306,27.6046024 7.56254088,26.9109038 L6.35458338,25.211095 C5.71473894,24.3107213 5.92593965,23.0621278 6.82631339,22.4222833 C6.85739246,22.4001972 6.88909674,22.3790043 6.92138737,22.3587306 L8.73337642,21.2210736 C9.45047766,20.7708416 9.80635341,19.9178272 9.62185138,19.0914484 L9.16763482,17.0570266 C8.92694824,15.9789989 9.60574734,14.9099697 10.683775,14.6692832 C10.7135856,14.6626275 10.7435446,14.6566556 10.7736287,14.6513722 L12.9553704,14.268212 C13.7792015,14.1235298 14.4259847,13.481462 14.5766912,12.6587117 L14.961759,10.5565144 C15.1607762,9.47002186 16.2028877,8.75058095 17.2893802,8.94959811 C17.3088642,8.95316708 17.3282941,8.9570253 17.3476635,8.96117152 L19.5648474,9.43578156 C20.372825,9.60873711 21.2039833,9.26701689 21.6566519,8.57576261 L22.8685681,6.72508821 C23.4736934,5.80102267 24.7133476,5.54247055 25.6374131,6.14759588 C25.6476281,6.1542852 25.6577817,6.16106794 25.6678725,6.16794322 L27.5405303,7.44386267 C28.2199325,7.90676758 29.1133996,7.90676758 29.7928018,7.44386267 L31.6654596,6.16794322 C32.5782876,5.54599563 33.822469,5.7818008 34.4444166,6.69462882 C34.4512919,6.70471962 34.4580746,6.71487318 34.464764,6.72508821 L35.6766801,8.57576261 C36.1293488,9.26701689 36.9605071,9.60873711 37.7684846,9.43578156 L39.9856685,8.96117152 C41.0657692,8.72996533 42.1287935,9.41813029 42.3599996,10.498231 C42.3641458,10.5176004 42.3680041,10.5370303 42.371573,10.5565144 L42.7566409,12.6587117 C42.9073474,13.481462 43.5541306,14.1235298 44.3779616,14.268212 L46.5597034,14.6513722 C47.647623,14.842434 48.37467,15.8792533 48.1836082,16.967173 C48.1783248,16.997257 48.1723529,17.0272161 48.1656972,17.0570266 L47.7114807,19.0914484 C47.5269787,19.9178272 47.8828544,20.7708416 48.5999556,21.2210736 L50.4119447,22.3587306 C51.3474176,22.9460672 51.6296379,24.1805481 51.0423014,25.1160211 C51.0220277,25.1483117 51.0008348,25.180016 50.9787487,25.211095 L49.7707912,26.9109038 C49.277819,27.6046024 49.277819,28.5342869 49.7707912,29.2279855 L50.9787487,30.9277943 C51.6185931,31.828168 51.4073924,33.0767616 50.5070187,33.716606 C50.4759396,33.7386921 50.4442353,33.759885 50.4119447,33.7801587 L48.5999556,34.9178158 C47.8828544,35.3680477 47.5269787,36.2210621 47.7114807,37.0474409 L48.1656972,39.0818627 C48.4063838,40.1598904 47.7275847,41.2289196 46.649557,41.4696062 C46.6197465,41.4762618 46.5897874,41.4822337 46.5597034,41.4875171 L44.3779616,41.8706773 C43.5541306,42.0153595 42.9073474,42.6574273 42.7566409,43.4801776 L42.371573,45.582375 C42.1725559,46.6688675 41.1304444,47.3883084 40.0439519,47.1892912 C40.0244679,47.1857222 40.0050379,47.181864 39.9856685,47.1777178 L37.7684846,46.7031078 C36.9605071,46.5301522 36.1293488,46.8718724 35.6766801,47.5631267 L34.464764,49.4138011 C33.8596386,50.3378666 32.6199845,50.5964188 31.695919,49.9912934 C31.6857039,49.9846041 31.6755504,49.9778214 31.6654596,49.9709461 L29.7928018,48.6950266 C29.1133996,48.2321217 28.2199325,48.2321217 27.5405303,48.6950266 Z" id="Star"></path>
                        </g>
                    </g>
                </g>
            </g>
        </g>
    </g>
</svg>